<?xml version="1.0" encoding="utf-8"?>
<!-- Generator: Adobe Illustrator 20.0.0, SVG Export Plug-In . SVG Version: 6.00 Build 0)  -->
<svg version="1.1" id="Layer_1" xmlns="http://www.w3.org/2000/svg" xmlns:xlink="http://www.w3.org/1999/xlink" x="0px" y="0px"
	 viewBox="0 0 97.1 81" style="enable-background:new 0 0 97.1 81;" xml:space="preserve">
<style type="text/css">
	.st0{fill:none;stroke:#A09D9E;stroke-width:2;}
	.st1{fill:none;stroke:#00C463;stroke-width:2;}
	.st2{fill:#00C463;stroke:#00C463;stroke-width:2;}
	.st3{fill:#A09D9E;}
	.st4{fill:none;stroke:#00C463;stroke-width:2;stroke-miterlimit:10;}
	.st5{fill:#00C463;}
</style>
<g>
	<path class="st0" d="M4.8,61h10.8c2.1,0,3.8,2.3,3.8,5.1v8.9c0,2.8-1.7,5.1-3.8,5.1H4.8C2.7,80,1,77.7,1,74.9V66
		C1,63.2,2.7,61,4.8,61z"/>
	<path class="st0" d="M55.9,14.6h10.8c2.1,0,3.8,2.3,3.8,5.1v55.2c0,2.8-1.7,5.1-3.8,5.1H55.9c-2.1,0-3.8-2.3-3.8-5.1V19.7
		C52.1,16.9,53.8,14.6,55.9,14.6z"/>
	<path class="st1" d="M81.4,1h10.8c2.1,0,3.8,2.3,3.8,5.1v68.8c0,2.8-1.7,5.1-3.8,5.1H81.4c-2.1,0-3.8-2.3-3.8-5.1V6.1
		C77.6,3.3,79.3,1,81.4,1z"/>
	<path class="st0" d="M30.4,44.6h10.8c2.1,0,3.8,2.3,3.8,5.1v25.2c0,2.8-1.7,5.1-3.8,5.1H30.4c-2.1,0-3.8-2.3-3.8-5.1V49.7
		C26.5,46.9,28.2,44.6,30.4,44.6z"/>
</g>
</svg>
