<?xml version="1.0" encoding="utf-8"?>
<!-- Generator: Adobe Illustrator 20.0.0, SVG Export Plug-In . SVG Version: 6.00 Build 0)  -->
<svg version="1.1" id="Layer_1" xmlns="http://www.w3.org/2000/svg" xmlns:xlink="http://www.w3.org/1999/xlink" x="0px" y="0px"
	 viewBox="0 0 68.6 50.9" style="enable-background:new 0 0 68.6 50.9;" xml:space="preserve">
<style type="text/css">
	.st0{fill:none;stroke:#A09D9E;stroke-width:2;}
	.st1{fill:none;stroke:#00C463;stroke-width:2;}
	.st2{fill:#00C463;stroke:#00C463;stroke-width:2;}
	.st3{fill:#A09D9E;}
	.st4{fill:none;stroke:#00C463;stroke-width:2;stroke-miterlimit:10;}
	.st5{fill:#00C463;}
</style>
<g>
	<path class="st4" d="M57.9,18.5V1.8c0-0.5-0.4-0.8-0.8-0.8H1.9C1.4,1,1,1.4,1,1.8v37.5"/>
	<path class="st4" d="M1,39v2.3c0,0.7,0.7,1.2,1.5,1.2h34.9"/>
	<path class="st4" d="M23.2,42.6c-0.1,1.2,0.1,3.8-0.1,5.1c-0.2,1.2-1.1,1.7-1.7,2"/>
	<line class="st4" x1="19" y1="49.9" x2="40" y2="49.9"/>
	<g>
		<path class="st4" d="M45.2,26v-7.5c0-0.1,0.1-0.2,0.2-0.2h21c0.7,0,1.2,0.5,1.2,1.2v29.1c0,0.7-0.5,1.2-1.2,1.2H48.7"/>
	</g>
	<g>
		<g>
			<path class="st4" d="M49.4,49.1c0,0.4-0.3,0.7-0.7,0.7H38.3c-0.4,0-0.7-0.3-0.7-0.7V27.2c0-0.4,0.3-0.7,0.7-0.7h10.4
				c0.4,0,0.7,0.3,0.7,0.7V49.1z"/>
		</g>
		<circle class="st5" cx="43.5" cy="46.6" r="1"/>
		<path class="st5" d="M45.2,30h-3.5c-0.2,0-0.4-0.2-0.4-0.4v0c0-0.2,0.2-0.4,0.4-0.4h3.5c0.2,0,0.4,0.2,0.4,0.4v0
			C45.6,29.8,45.4,30,45.2,30z"/>
	</g>
</g>
</svg>
