<?xml version="1.0" encoding="utf-8"?>
<!-- Generator: Adobe Illustrator 20.0.0, SVG Export Plug-In . SVG Version: 6.00 Build 0)  -->
<svg version="1.1" id="Layer_1" xmlns="http://www.w3.org/2000/svg" xmlns:xlink="http://www.w3.org/1999/xlink" x="0px" y="0px"
	 viewBox="0 0 112.2 80.3" style="enable-background:new 0 0 112.2 80.3;" xml:space="preserve">
<style type="text/css">
	.st0{fill:none;stroke:#A09D9E;stroke-width:2;}
	.st1{fill:none;stroke:#00C463;stroke-width:2;}
	.st2{fill:#00C463;stroke:#00C463;stroke-width:2;}
	.st3{fill:#A09D9E;}
	.st4{fill:none;stroke:#00C463;stroke-width:2;stroke-miterlimit:10;}
	.st5{fill:#00C463;}
</style>
<g>
	<path id="Cloud_base_3_" class="st0" d="M111.2,59.1c0.1,10.5-6.9,19.3-17.3,20.2l-71.4,0C10.4,78.9,0.9,68.9,1,56.9
		c-0.1-9.7,6.1-18.3,15.2-21.4c0-0.2,0-0.3,0-0.5C16,23.4,24,14.3,35.7,14.2c4.2,0,7.7,0.8,11.2,3.3C50.8,7.6,60.3,1.1,70.9,1
		c14.6,0.2,26.2,12.1,26,26.7c0,3.9-0.8,7.7-2.4,11.3C104.7,40.2,111.3,48.8,111.2,59.1z"/>
</g>
</svg>
