<?xml version="1.0" encoding="utf-8"?>
<!-- Generator: Adobe Illustrator 20.0.0, SVG Export Plug-In . SVG Version: 6.00 Build 0)  -->
<svg version="1.1" id="Layer_1" xmlns="http://www.w3.org/2000/svg" xmlns:xlink="http://www.w3.org/1999/xlink" x="0px" y="0px"
	 viewBox="0 0 112.4 83.2" style="enable-background:new 0 0 112.4 83.2;" xml:space="preserve">
<style type="text/css">
	.st0{fill:none;stroke:#A09D9E;stroke-width:2;}
	.st1{fill:none;stroke:#00C463;stroke-width:2;}
	.st2{fill:#00C463;stroke:#00C463;stroke-width:2;}
	.st3{fill:#A09D9E;}
	.st4{fill:none;stroke:#00C463;stroke-width:2;stroke-miterlimit:10;}
	.st5{fill:#00C463;}
</style>
<path class="st0" d="M95.4,30V2.4C95.4,1.6,94.8,1,94,1H2.4C1.7,1,1.1,1.6,1.1,2.4v62.1"/>
<path class="st0" d="M1,64v3.9c0,1.1,1.1,2,2.5,2h58.3"/>
<path class="st0" d="M37.7,70c-0.2,2,0.2,6.4-0.2,8.5c-0.4,2-0.7,2-1.7,2.6c-0.6,0.3-2,0.9-2,0.9"/>
<line class="st0" x1="30.8" y1="82.1" x2="65.7" y2="82.1"/>
<g>
	<path class="st0" d="M74.2,43.3V30.1c0-0.2,0.1-0.3,0.3-0.3h34.9c1.1,0,2,0.9,2,2v48.3c0,1.1-0.9,2-2,2H79.9"/>
</g>
<g>
	<g>
		<polygon class="st1" points="48.2,51.9 38.2,40.8 28.2,29.6 68.2,29.6 58.2,40.8 		"/>
		<line class="st1" x1="56.9" y1="30" x2="49.4" y2="50.6"/>
		<line class="st1" x1="47.1" y1="50.6" x2="39.3" y2="29.8"/>
	</g>
	<g>
		<polyline class="st1" points="69.8,29.2 62.7,22.6 33.7,22.6 26.5,29.2 		"/>
		<polyline class="st1" points="57,29.7 48.2,23 39.4,29.7 		"/>
	</g>
</g>
<g>
	<g>
		<path class="st0" d="M81.3,80.9c0,0.7-0.6,1.2-1.2,1.2H62.9c-0.7,0-1.2-0.5-1.2-1.2V44.6c0-0.7,0.6-1.2,1.2-1.2h17.2
			c0.7,0,1.2,0.6,1.2,1.2V80.9z"/>
	</g>
	<circle class="st3" cx="71.5" cy="76.8" r="1.7"/>
	<path class="st3" d="M74.3,49.2h-5.8c-0.3,0-0.6-0.3-0.6-0.6v0c0-0.3,0.3-0.6,0.6-0.6h5.8c0.3,0,0.6,0.3,0.6,0.6v0
		C75,48.9,74.7,49.2,74.3,49.2z"/>
</g>
</svg>
