<?xml version="1.0" encoding="utf-8"?>
<!-- Generator: Adobe Illustrator 20.0.0, SVG Export Plug-In . SVG Version: 6.00 Build 0)  -->
<svg version="1.1" id="Layer_1" xmlns="http://www.w3.org/2000/svg" xmlns:xlink="http://www.w3.org/1999/xlink" x="0px" y="0px"
	 viewBox="0 0 93 80" style="enable-background:new 0 0 93 80;" xml:space="preserve">
<style type="text/css">
	.st0{fill:none;stroke:#A09D9E;stroke-width:2;}
	.st1{fill:none;stroke:#00C463;stroke-width:2;}
	.st2{fill:#00C463;stroke:#00C463;stroke-width:2;}
	.st3{fill:#A09D9E;}
	.st4{fill:none;stroke:#00C463;stroke-width:2;stroke-miterlimit:10;}
	.st5{fill:#00C463;}
</style>
<g>
	<path class="st0" d="M30.3,52.8L43,23.8h1l15,21h1l14-9l16,8"/>
	<circle class="st2" cx="43.5" cy="26.3" r="2.5"/>
	<circle id="Ellipse_12_copy_1_" class="st2" cx="59.5" cy="46.3" r="2.5"/>
	<circle id="Ellipse_12_copy_2_1_" class="st2" cx="74.5" cy="36.3" r="2.5"/>
	<circle id="Ellipse_12_copy_3_1_" class="st2" cx="89.5" cy="44.3" r="2.5"/>
	<g>
		<circle class="st0" cx="32.5" cy="26.9" r="25.9"/>
		<path id="Rounded_Rectangle_17_2_" class="st3" d="M17.9,47.9c1.2,0.5,1.7,1.8,1.2,2.9l0,0L4.4,78.5c-0.4,1.2-1.7,1.8-2.9,1.4
			s-1.8-1.7-1.4-2.9c0-0.1,0-0.1,0.1-0.2l14.7-27.6C15.4,48,16.7,47.4,17.9,47.9L17.9,47.9z"/>
	</g>
</g>
</svg>
