<?xml version="1.0" encoding="utf-8"?>
<!-- Generator: Adobe Illustrator 20.0.0, SVG Export Plug-In . SVG Version: 6.00 Build 0)  -->
<svg version="1.1" id="Layer_1" xmlns="http://www.w3.org/2000/svg" xmlns:xlink="http://www.w3.org/1999/xlink" x="0px" y="0px"
	 viewBox="0 0 83 82" style="enable-background:new 0 0 83 82;" xml:space="preserve">
<style type="text/css">
	.st0{fill:none;stroke:#A09D9E;stroke-width:2;}
	.st1{fill:none;stroke:#00C463;stroke-width:2;}
	.st2{fill:#00C463;stroke:#00C463;stroke-width:2;}
	.st3{fill:#A09D9E;}
	.st4{fill:none;stroke:#00C463;stroke-width:2;stroke-miterlimit:10;}
	.st5{fill:#00C463;}
</style>
<g>
	<line class="st0" x1="49.2" y1="27" x2="33.1" y2="27"/>
	<path class="st0" d="M27,19V3.9C27,2.3,28.3,1,29.9,1h22.2C53.7,1,55,2.3,55,3.9v17.9"/>
	<path class="st0" d="M50,41.6V24.9c0-1.6,1.3-2.9,2.9-2.9h26.2c1.6,0,2.9,1.3,2.9,2.9v27.2c0,1.6-1.3,2.9-2.9,2.9H60.9"/>
	<path class="st0" d="M21.6,50H3.9C2.3,50,1,48.7,1,47.1V21.9C1,20.3,2.3,19,3.9,19h26.2c1.6,0,2.9,1.3,2.9,2.9v19.9"/>
	<path class="st3" d="M25,30v2h-1v-2h-2v-1h2v-2h1v2h2v1H25z M18.1,26.8c0.1,0.1,0.3,0.2,0.5,0.4c0.2,0.2,0.3,0.4,0.5,0.7
		c0.2,0.2,0.3,0.5,0.4,0.9c0.1,0.3,0.2,0.7,0.2,1.2c0,0.8-0.2,1.5-0.5,2c-0.2,0.2-0.4,0.5-0.5,0.7c-0.2,0.2-0.4,0.4-0.7,0.6
		c-0.1,0.1-0.3,0.3-0.4,0.5c-0.1,0.2-0.2,0.4-0.2,0.6c0,0.2,0.1,0.4,0.2,0.6c0.1,0.1,0.2,0.3,0.3,0.4l0.8,0.6
		c0.5,0.4,0.9,0.8,1.3,1.3c0.3,0.5,0.5,1.1,0.5,1.9c0,1.1-0.5,2.1-1.5,3c-1,0.9-2.5,1.3-4.4,1.4c-1.6,0-2.8-0.4-3.6-1
		c-0.8-0.6-1.2-1.4-1.2-2.2c0-0.4,0.1-0.9,0.4-1.4c0.3-0.5,0.7-1,1.4-1.4c0.7-0.4,1.5-0.7,2.3-0.8c0.8-0.1,1.5-0.2,2-0.2
		c-0.2-0.2-0.3-0.5-0.4-0.7c-0.2-0.2-0.2-0.5-0.2-0.9c0-0.2,0-0.4,0.1-0.5c0.1-0.1,0.1-0.3,0.1-0.4c-0.3,0-0.5,0-0.7,0
		c-1.2,0-2.2-0.4-2.8-1.2c-0.7-0.7-1-1.5-1-2.4c0-1.1,0.5-2.1,1.4-3.1c0.7-0.5,1.3-0.9,2-1.1c0.7-0.1,1-0.2,1.6-0.2h5l-1.5,0.8H18.1
		z M15.1,37c-0.5,0.1-1,0.2-1.5,0.3c-0.1,0-0.3,0.1-0.5,0.2c-0.2,0.1-0.4,0.2-0.6,0.4c-0.2,0.2-0.4,0.4-0.5,0.7
		c-0.2,0.3-0.3,0.6-0.3,1.1c0,0.8,0.4,1.5,1.1,2c0.7,0.5,1.6,0.8,2.9,0.8c1.1,0,1.9-0.3,2.5-0.7c0.6-0.5,0.8-1,0.8-1.8
		c0-0.6-0.2-1.1-0.6-1.5c-0.4-0.4-1-0.9-1.9-1.5c-0.1,0-0.3,0-0.5,0C15.9,36.9,15.6,36.9,15.1,37z M17,28.2
		c-0.2-0.4-0.5-0.8-0.9-1.1c-0.4-0.3-0.8-0.4-1.3-0.4c-0.6,0-1.1,0.3-1.6,0.8c-0.3,0.5-0.5,1.1-0.5,1.7c0,0.8,0.2,1.7,0.7,2.6
		c0.2,0.4,0.5,0.8,0.9,1.1c0.4,0.3,0.8,0.4,1.3,0.4c0.6,0,1.1-0.2,1.5-0.7c0.2-0.3,0.3-0.6,0.4-0.9c0-0.3,0-0.6,0-0.8
		C17.7,30,17.5,29.1,17,28.2z"/>
	<g>
		<path class="st5" d="M35.2,12h2.5v8h-2.5V12z M36.4,8c0.8,0,1.4,0.6,1.4,1.4c0,0.8-0.6,1.4-1.4,1.4c-0.8,0-1.4-0.6-1.4-1.4
			C35,8.6,35.6,8,36.4,8"/>
		<path class="st5" d="M39.2,12h2.4v1.1h0c0.3-0.6,1.1-1.3,2.4-1.3c2.5,0,3,1.7,3,3.8V20h-2.5v-3.9c0-0.9,0-2.1-1.3-2.1
			c-1.3,0-1.5,1-1.5,2.1v4h-2.5V12z"/>
	</g>
	<path class="st3" d="M74.1,33.5c-0.6,0.3-1.2,0.4-1.9,0.5c0.7-0.4,1.2-1.1,1.5-1.8c-0.6,0.4-1.4,0.7-2.1,0.8c-0.6-0.6-1.5-1-2.4-1
		c-1.8,0-3.3,1.5-3.3,3.3c0,0.3,0,0.5,0.1,0.8c-2.8-0.1-5.2-1.5-6.8-3.5c-0.3,0.5-0.4,1.1-0.4,1.7c0,1.2,0.6,2.2,1.5,2.8
		c-0.5,0-1.1-0.2-1.5-0.4v0c0,1.6,1.1,3,2.7,3.3c-0.3,0.1-0.6,0.1-0.9,0.1c-0.2,0-0.4,0-0.6-0.1c0.4,1.3,1.6,2.3,3.1,2.3
		c-0.9,0.7-2.1,1.2-3.3,1.4c0.2,0.3,0.4,0.6,0.5,1c0.9,0.3,2,0.5,3,0.5c6.1,0,9.5-5.1,9.5-9.5c0-0.1,0-0.3,0-0.4
		C73.1,34.7,73.7,34.1,74.1,33.5z"/>
	<path class="st0" d="M24.9,42h32.2c1.6,0,2.9,1.3,2.9,2.9v33.2c0,1.6-1.3,2.9-2.9,2.9H24.9c-1.6,0-2.9-1.3-2.9-2.9V44.9
		C22,43.3,23.3,42,24.9,42z"/>
	<path class="st5" d="M45,63l1-4h-4v-2c0-1.4,0-2,2-2h2l1-4c-0.4-0.1-1.2,0-3,0c-3.7,0-6.1,1.5-6.1,5.7L38,59h-3v4h3v9h4v-9H45z"/>
</g>
</svg>
