<?xml version="1.0" encoding="utf-8"?>
<!-- Generator: Adobe Illustrator 20.0.0, SVG Export Plug-In . SVG Version: 6.00 Build 0)  -->
<svg version="1.1" id="Layer_1" xmlns="http://www.w3.org/2000/svg" xmlns:xlink="http://www.w3.org/1999/xlink" x="0px" y="0px"
	 viewBox="0 0 47.7 47.2" style="enable-background:new 0 0 47.7 47.2;" xml:space="preserve">
<style type="text/css">
	.st0{fill:none;stroke:#A09D9E;stroke-width:2;}
	.st1{fill:none;stroke:#00C463;stroke-width:2;}
	.st2{fill:#00C463;stroke:#00C463;stroke-width:2;}
	.st3{fill:#A09D9E;}
	.st4{fill:none;stroke:#00C463;stroke-width:2;stroke-miterlimit:10;}
	.st5{fill:#00C463;}
</style>
<g>
	<path class="st4" d="M22.6,22.4L22.6,22.4c3.5-3.6,3.4-9.3-0.1-12.8l-6.1-6C12.8,0.1,7.1,0.1,3.6,3.7l0,0C0.1,7.3,0.1,13,3.7,16.5
		l6.1,6C13.3,26,19.1,25.9,22.6,22.4z"/>
	<path class="st4" d="M44.1,43.5L44.1,43.5c3.5-3.6,3.4-9.3-0.1-12.8l-6.1-6c-3.6-3.5-9.3-3.4-12.8,0.1l0,0
		c-3.5,3.6-3.4,9.3,0.1,12.8l6.1,6C34.9,47.1,40.7,47.1,44.1,43.5z"/>
	<path class="st5" d="M29.4,29.7L30,29c0.2-0.2,0.2-0.4,0-0.6L19.2,17.8c-0.2-0.2-0.4-0.2-0.6,0L18,18.5c-0.2,0.2-0.2,0.4,0,0.6
		l10.8,10.6C28.9,29.8,29.2,29.8,29.4,29.7z"/>
</g>
</svg>
