<?xml version="1.0" encoding="utf-8"?>
<!-- Generator: Adobe Illustrator 20.0.0, SVG Export Plug-In . SVG Version: 6.00 Build 0)  -->
<svg version="1.1" id="Layer_1" xmlns="http://www.w3.org/2000/svg" xmlns:xlink="http://www.w3.org/1999/xlink" x="0px" y="0px"
	 viewBox="0 0 110.5 76.4" style="enable-background:new 0 0 110.5 76.4;" xml:space="preserve">
<style type="text/css">
	.st0{fill:none;stroke:#A09D9E;stroke-width:2;}
	.st1{fill:none;stroke:#00C463;stroke-width:2;}
	.st2{fill:#00C463;stroke:#00C463;stroke-width:2;}
	.st3{fill:#A09D9E;}
	.st4{fill:none;stroke:#00C463;stroke-width:2;stroke-miterlimit:10;}
	.st5{fill:#00C463;}
</style>
<path id="Rounded_Rectangle_27_2_" class="st0" d="M32.7,18.2v-16c0-0.7,0.5-1.2,1.2-1.2h41.4c0.7,0,1.2,0.5,1.2,1.2v15.5"/>
<path id="Rounded_Rectangle_27_copy_2_2_" class="st0" d="M38.8,18.4V8.3c0-0.7,0.5-1.2,1.2-1.2h29.3c0.7,0,1.2,0.5,1.2,1.2V18"/>
<path class="st0" d="M1,37.8V20.1c0-1.1,0.9-2.1,2.1-2.1h104.4c1.1,0,2.1,0.9,2.1,2.1v17.2"/>
<path id="Rectangle_311_copy_1_" class="st0" d="M100.7,35.1h6.7c1.1,0,2.1,0.9,2.1,2.1v36.1c0,1.1-0.9,2.1-2.1,2.1H3.1
	c-1.1,0-2.1-0.9-2.1-2.1V37.2c0-1.1,0.9-2.1,2.1-2.1h6.5"/>
<path id="Rounded_Rectangle_26_copy_2_" class="st0" d="M13.9,53.4h-3.1c-0.7,0-1.2-0.5-1.2-1.2V30.3c0-0.7,0.5-1.2,1.2-1.2h14.6
	c0.7,0,1.2,0.5,1.2,1.2v21.9c0,0.7-0.5,1.2-1.2,1.2h-3.1 M88.5,53.4h-3.4c-0.7,0-1.2-0.5-1.2-1.2V30.3c0-0.7,0.5-1.2,1.2-1.2h14.6
	c0.7,0,1.2,0.5,1.2,1.2v21.9c0,0.7-0.5,1.2-1.2,1.2h-3.5"/>
<path id="Rounded_Rectangle_26_2_" class="st1" d="M37,49.2h36.5c0.6,0,1.1,0.5,1.1,1.2v9.8c0,0.7-0.5,1.2-1.1,1.2H37
	c-0.6,0-1.1-0.5-1.1-1.2v-9.8C35.9,49.7,36.4,49.2,37,49.2z"/>
<path id="Rounded_Rectangle_27_copy_2_" class="st0" d="M15.6,35.1h4.9c0.7,0,1.2,0.5,1.2,1.2v20.7c0,0.7-0.5,1.2-1.2,1.2h-4.9
	c-0.7,0-1.2-0.5-1.2-1.2V36.4C14.4,35.7,15,35.1,15.6,35.1z M90,35.1h4.9c0.7,0,1.2,0.5,1.2,1.2v20.7c0,0.7-0.5,1.2-1.2,1.2H90
	c-0.7,0-1.2-0.5-1.2-1.2V36.4C88.8,35.7,89.3,35.1,90,35.1z"/>
<line class="st0" x1="26.7" y1="35.1" x2="83.5" y2="35.1"/>
</svg>
